# xmcd
#
# Track frame offsets: 
#        150
#        16002
#        27922
#        39887
#        53024
#        65227
#        75567
#        87858
#        100166
#        114948
#
# Disc length: 1657 seconds
#
# Revision: 1
# Processed by: cddbd v1.5.2PL0 Copyright (c) Steve Scherf et al.
# Submitted via: ExactAudioCopy v1.0b3
#
DISCID=6a06770a
DTITLE=ernest tubb - ernest tubb and friends
DYEAR=1900
DGENRE=Country
TTITLE0=soldiers last letter [w-johnny cash]
TTITLE1=waltz across texas [w-willie nelson]
TTITLE2=half a mins [w-george jones, buddy emmons]
TTITLE3=driftwood on the river [w-billy walker]
TTITLE4=thanks a lot [w-loretta lynn]
TTITLE5=set up two glasses [w-ferlin husky,simon crum]
TTITLE6=sad songs an waltzes [w-gene watson]
TTITLE7=there is a little bit of everything in texas [w-roy clark]
TTITLE8=rainbows at midnight [w-marty robbins,reggie young]
TTITLE9=have you ever been lonely [w-mel tillis]
EXTD=
EXTT0=
EXTT1=
EXTT2=
EXTT3=
EXTT4=
EXTT5=
EXTT6=
EXTT7=
EXTT8=
EXTT9=
PLAYORDER=
